<!--?xml version="1.0" standalone="no"?-->
              <svg id="sw-js-blob-svg" viewBox="0 0 100 100" xmlns="http://www.w3.org/2000/svg" version="1.1">
                    <defs> 
                        <linearGradient id="sw-gradient" x1="0" x2="1" y1="1" y2="0">
                            <stop id="stop1" stop-color="rgba(18, 25, 43, 1)"  offset="0%"></stop>
                            <stop id="stop2" stop-color="rgba(18, 25, 43, 1)" offset="100%"></stop>
                        </linearGradient>
                    </defs>
                <path fill="url(#sw-gradient)" d="M16.2,-23C23.3,-17.1,33,-15.5,34.7,-11.1C36.4,-6.7,30,0.5,26.1,7.2C22.1,13.9,20.6,20.1,16.7,23C12.7,25.9,6.4,25.6,0.4,25C-5.6,24.5,-11.1,23.7,-16.9,21.4C-22.7,19.1,-28.7,15.2,-30.3,9.9C-31.9,4.7,-29.1,-1.9,-27.4,-9.4C-25.7,-17,-25.1,-25.4,-20.8,-32.2C-16.4,-39.1,-8.2,-44.4,-1.8,-41.8C4.5,-39.3,9,-29,16.2,-23Z" width="100%" height="100%" transform="translate(50 50)" stroke-width="0" style="transition: all 0.3s ease 0s;" stroke="url(#sw-gradient)"></path>
              </svg>